<svg xmlns="http://www.w3.org/2000/svg" viewBox="0 0 100 100" width="100" height="100">
  <!-- Body -->
  <ellipse cx="50" cy="58" rx="28" ry="24" fill="#f8b6c8"/>
  <!-- Head -->
  <circle cx="50" cy="36" r="20" fill="#f8b6c8"/>
  <!-- Ears -->
  <ellipse cx="33" cy="22" rx="8" ry="10" fill="#f8b6c8"/>
  <ellipse cx="67" cy="22" rx="8" ry="10" fill="#f8b6c8"/>
  <ellipse cx="33" cy="22" rx="5" ry="7" fill="#e879a0"/>
  <ellipse cx="67" cy="22" rx="5" ry="7" fill="#e879a0"/>
  <!-- Snout -->
  <ellipse cx="50" cy="42" rx="10" ry="7" fill="#e879a0"/>
  <!-- Nostrils -->
  <circle cx="46" cy="43" r="2" fill="#c2185b"/>
  <circle cx="54" cy="43" r="2" fill="#c2185b"/>
  <!-- Eyes -->
  <circle cx="43" cy="32" r="3" fill="#1a1a2e"/>
  <circle cx="57" cy="32" r="3" fill="#1a1a2e"/>
  <circle cx="44" cy="31" r="1" fill="#fff"/>
  <circle cx="58" cy="31" r="1" fill="#fff"/>
  <!-- Legs -->
  <rect x="32" y="76" width="10" height="14" rx="5" fill="#f8b6c8"/>
  <rect x="46" y="78" width="10" height="12" rx="5" fill="#f8b6c8"/>
  <rect x="58" y="76" width="10" height="14" rx="5" fill="#f8b6c8"/>
  <!-- Tail -->
  <path d="M78 54 Q90 48 85 58 Q80 68 88 64" stroke="#e879a0" stroke-width="3" fill="none" stroke-linecap="round"/>
</svg>
